<svg xmlns="http://www.w3.org/2000/svg" version="1.1" xmlns:xlink="http://www.w3.org/1999/xlink" xmlns:svgjs="http://svgjs.com/svgjs" width="100" height="100"><svg xmlns="http://www.w3.org/2000/svg" width="100" height="100" fill="none">
  <path fill="#FF4081" fill-rule="evenodd" d="M16 0C7.163 0 0 7.163 0 16v68c0 8.837 7.163 16 16 16h68c8.837 0 16-7.163 16-16V16c0-8.837-7.163-16-16-16H16Zm63.89 57.642c.898.693 1.403 1.665 1.517 2.915h8.08c-.023-2.17-.586-4.08-1.688-5.727-1.102-1.648-2.653-2.927-4.653-3.836-1.989-.92-4.336-1.38-7.04-1.38-2.648 0-5.006.454-7.074 1.363-2.068.91-3.688 2.176-4.858 3.801-1.17 1.625-1.75 3.517-1.739 5.677-.011 2.647.853 4.75 2.591 6.306 1.739 1.546 4.12 2.665 7.142 3.358l3.648.853c1.273.295 2.318.619 3.136.971.83.341 1.444.75 1.841 1.228.398.465.603 1.028.614 1.687a3.02 3.02 0 0 1-.665 1.875c-.432.545-1.05.972-1.858 1.278-.795.307-1.761.46-2.897.46-1.24 0-2.33-.193-3.273-.579-.932-.386-1.665-.954-2.199-1.704-.534-.75-.835-1.688-.903-2.813h-8.08c.034 2.727.653 4.983 1.858 6.767 1.204 1.784 2.892 3.114 5.063 3.989 2.17.875 4.715 1.312 7.636 1.312 2.909 0 5.392-.42 7.449-1.261 2.068-.841 3.653-2.051 4.755-3.63 1.103-1.58 1.66-3.472 1.67-5.677-.01-1.398-.25-2.66-.715-3.784a8.638 8.638 0 0 0-2.063-2.983c-.897-.864-2.011-1.608-3.34-2.233-1.319-.625-2.841-1.125-4.569-1.5l-3-.682c-.795-.17-1.511-.37-2.147-.596a7.838 7.838 0 0 1-1.637-.785 3.463 3.463 0 0 1-1.023-1.056c-.227-.398-.329-.858-.306-1.381a2.839 2.839 0 0 1 .562-1.688c.364-.5.91-.892 1.637-1.176.727-.284 1.636-.426 2.727-.426 1.648 0 2.915.352 3.801 1.057ZM54.352 85V50.09h-8.42v20.115h-.29L31.903 50.09h-7.26V85h8.437V64.852h.221L47.193 85h7.16Z" clip-rule="evenodd"></path>
</svg><style>@media (prefers-color-scheme: light) { :root { filter: none; } }
</style></svg>